<svg width="800" height="600" xmlns="http://www.w3.org/2000/svg">

 <g>
  <title>Layer 1</title>
  <ellipse stroke="#000" ry="135.5" rx="140.5" id="svg_7" cy="274.5" cx="392.5" fill="#fff"/>
  <path stroke="#000" id="svg_5" d="m368.79354,362.92953c-13.6987,-2.66167 -10.17318,-11.04001 -10.87138,-16.99976c-0.16099,-23.16842 -0.04246,-46.33721 -0.07803,-69.50579c24.48211,-0.18954 48.96423,-0.45472 73.45016,-0.41859c-0.02664,26.6074 0.66801,53.22094 -0.16709,79.82354c-0.65583,7.13141 -15.97573,8.04576 -26.6925,7.35597c-11.88196,0.00222 -23.76344,-0.09306 -35.64116,-0.25537zm-35.2925,-69.3404c-7.75242,-0.43251 -14.16853,-10.52783 -5.06257,-10.5036c7.16989,-0.04855 14.33976,-0.09711 21.50966,-0.14567c1.15743,4.90427 -1.83852,11.88789 -14.22801,10.88725l-2.21909,-0.23798l0,0l0,-0.00001zm114.77345,-0.00395c-8.0251,-0.52152 -12.35984,-9.20759 -6.51918,-10.48964c7.66279,-0.05189 15.32559,-0.10379 22.98837,-0.15569c1.15946,4.90587 -1.84428,11.89346 -14.23871,10.88594l-2.23044,-0.2406c0,0 -0.00003,0 -0.00003,0l0,-0.00001zm-123.69465,-33.75747c0.63127,-8.11317 -1.24804,-16.39592 1.94333,-24.3802c4.67291,-6.21695 16.00776,-11.81466 29.11584,-12.33399c27.1312,0.11908 54.3339,-0.60043 81.40735,0.32424c16.14161,1.85066 29.02123,10.14079 27.4888,18.87007c0.37406,12.96802 0.1833,25.93873 0.27588,38.90802c-8.52583,0.05682 -17.05167,0.11364 -25.57747,0.17046c0,-11.67296 0,-23.34593 0,-35.0189c-4.99818,-3.04061 -9.25523,1.04529 -7.53377,3.64514c-0.01951,7.87482 -0.03901,15.74964 -0.05854,23.62446c-24.70028,0 -49.40056,0 -74.10084,0c-0.20246,-9.12389 -0.40492,-18.2478 -0.60738,-27.37169c-4.8428,-2.8793 -8.24705,1.06652 -6.70813,3.4603c-0.08162,10.49674 -0.16325,20.99348 -0.24487,31.49023c-8.53235,0.05684 -17.06471,0.11371 -25.59707,0.17054c0.06563,-7.18622 0.13119,-14.37247 0.19687,-21.55867l0,-0.00001zm64.84824,-42.26626c-13.14292,-1.23361 -23.29838,-7.58493 -23.61159,-14.50247c19.00591,0 38.0118,0 57.01771,0c0.67258,9.00454 -16.64873,16.1478 -33.40612,14.50247zm-29.45811,-20.18661c3.23713,-1.68503 6.01603,-3.94371 11.22697,-3.15786c17.21243,0 34.42484,0 51.63724,0c-0.55371,1.94551 1.0508,5.01309 -0.73941,6.31571c-22.7253,0 -45.45058,0 -68.17587,0c2.01702,-1.05262 4.03405,-2.10524 6.05105,-3.15786l0.00002,0.00001zm21.71399,-5.58488c-5.31462,-0.03658 -10.62922,-0.07316 -15.94384,-0.10975c0.55491,-1.94138 -1.05206,-5.00675 0.73942,-6.30522c18.78487,0 37.56978,0 56.35467,0c-0.55368,1.94564 1.0508,5.01284 -0.73941,6.31589c-13.47311,-0.04603 -26.93712,0.26985 -40.41084,0.09908l-0.00001,0zm28.36328,171.3229c-7.52831,-1.34455 -13.07938,-5.44643 -11.59666,-9.60789c-0.2664,-19.79996 0.35202,-39.61222 -0.71693,-59.40225c-8.65356,-5.02781 -6.12027,7.157 -6.4518,9.94088c-0.46748,17.83801 0.75781,35.71952 -0.90864,53.52976c-1.18641,4.0731 -17.16134,6.21292 -2.72356,5.47614c7.46335,0.04907 14.93582,0.21979 22.3976,0.06336l-0.00001,-0.00001z" fill="#fff"/>
 </g>
</svg>